<?xml version="1.0" encoding="UTF-8" standalone="no"?>
<svg
   xmlns:dc="http://purl.org/dc/elements/1.1/"
   xmlns:cc="http://creativecommons.org/ns#"
   xmlns:rdf="http://www.w3.org/1999/02/22-rdf-syntax-ns#"
   xmlns:svg="http://www.w3.org/2000/svg"
   xmlns="http://www.w3.org/2000/svg"
   xmlns:sodipodi="http://sodipodi.sourceforge.net/DTD/sodipodi-0.dtd"
   xmlns:inkscape="http://www.inkscape.org/namespaces/inkscape"
   width="2834.6455"
   height="1629.9213"
   id="svg4456"
   version="1.1"
   inkscape:version="0.92.3 (2405546, 2018-03-11)"
   sodipodi:docname="linbin_screwless_borderless_stackable-LONG.svg">
  <metadata
     id="metadata4553">
    <rdf:RDF>
      <cc:Work
         rdf:about="">
        <dc:format>image/svg+xml</dc:format>
        <dc:type
           rdf:resource="http://purl.org/dc/dcmitype/StillImage" />
        <dc:title></dc:title>
      </cc:Work>
    </rdf:RDF>
  </metadata>
  <sodipodi:namedview
     pagecolor="#ffffff"
     bordercolor="#666666"
     borderopacity="1"
     objecttolerance="10"
     gridtolerance="10"
     guidetolerance="10"
     inkscape:pageopacity="0"
     inkscape:pageshadow="2"
     inkscape:window-width="1920"
     inkscape:window-height="1015"
     id="namedview4551"
     showgrid="false"
     inkscape:zoom="0.5037667"
     inkscape:cx="1089.0628"
     inkscape:cy="856.01075"
     inkscape:window-x="0"
     inkscape:window-y="0"
     inkscape:window-maximized="1"
     inkscape:current-layer="g4489"
     showguides="true"
     inkscape:guide-bbox="true"
     units="mm" />
  <desc
     id="desc4458">/home/simon/Dokumente/2d/linbinSingle.dxf - scale = 1.000000</desc>
  <defs
     id="defs4460">
    <marker
       refY="0"
       refX="0"
       style="overflow:visible"
       id="DistanceX"
       orient="auto">
      <path
         style="stroke:#000000;stroke-width:0.5"
         d="M 3,-3 -3,3 M 0,-5 0,5"
         id="path4463"
         inkscape:connector-curvature="0" />
    </marker>
    <pattern
       height="8"
       width="8"
       patternUnits="userSpaceOnUse"
       y="0"
       x="0"
       id="Hatch">
      <path
         linecap="square"
         stroke="#000000"
         stroke-width="0.25"
         d="M8 4 l-4,4"
         id="path4466" />
      <path
         linecap="square"
         stroke="#000000"
         stroke-width="0.25"
         d="M6 2 l-4,4"
         id="path4468" />
      <path
         linecap="square"
         stroke="#000000"
         stroke-width="0.25"
         d="M4 0 l-4,4"
         id="path4470" />
    </pattern>
    <symbol
       id="*Model_Space" />
    <symbol
       id="*Paper_Space" />
    <symbol
       id="*Paper_Space0" />
  </defs>
  <g
     inkscape:label="0"
     inkscape:groupmode="layer"
     id="g4475"
     transform="translate(0,577.55906)" />
  <g
     inkscape:label="first"
     inkscape:groupmode="layer"
     id="g4483"
     transform="translate(0,577.55906)" />
  <g
     inkscape:label="holes"
     inkscape:groupmode="layer"
     id="g4489"
     transform="translate(0,577.55906)">
    <path
       style="fill:none;stroke:#00ff00;stroke-width:0.99979883;stroke-linecap:round"
       d="m 86.63867,200.66483 v 10.63086 H 4.58008 v 354.33006 h 82.05859 v 10.6289 h 17.71094 v -10.6289 h 73.13476 v 10.6289 h 17.70899 v -10.6289 h 26.08008 82.06054 v 10.6289 h 17.70899 v -10.6289 h 48.94734 17.7089 6.4786 v 10.6289 h 17.7089 v -10.6289 h 11.2325 17.709 145.8554 v 10.6289 h 17.709 v -10.6289 h 35.4199 v 10.6289 h 17.709 v -10.6289 h 76.1699 V 211.29569 h -77.8144 l 1.6445,-10.63086 h -17.709 v 10.63086 h -35.4199 v -10.63086 h -17.709 v 10.63086 h -69.6855 -13.7989 -64.0156 -16.0644 -11.2325 v -10.63086 h -17.7089 v 10.63086 h -6.4786 -17.7089 -48.94734 v -10.63086 h -17.70899 v 10.63086 h -82.06054 -26.08008 v -10.63086 h -17.70899 v 10.63086 h -73.13476 v -10.63086 z"
       id="path3007"
       inkscape:connector-curvature="0" />
    <path
       sodipodi:nodetypes="ccccccccccccccccccccc"
       inkscape:connector-curvature="0"
       id="path3009"
       d="m 1297.9576,225.82523 -74.2024,-2e-5 v -10.63004 l -17.7093,3e-5 v 10.63003 l -35.4189,-3e-5 v -10.62997 l -17.7093,8e-5 v 10.62992 l -54.3435,-5e-5 v 354.33077 l 54.3435,-3e-5 v 10.62991 l 17.7093,-2e-5 v -10.62984 l 35.4189,-5e-5 v 10.63005 l 17.7093,-1.5e-4 10e-5,-10.62975 74.2024,-10e-5 z"
       style="fill:none;stroke:#00ff00;stroke-width:0.99979883;stroke-linecap:round" />
    <path
       sodipodi:nodetypes="ccccssccssccccccccccccccccccccssccssccccccccccccccccc"
       inkscape:connector-curvature="0"
       id="path3011"
       d="m 797.65621,200.66483 v 10.625 h -53.1708 v 60.3125 c 6.5239,0.307 11.6827,4.8518 11.6827,10.4687 v 14.25007 c 0,5.617 -5.1586,10.1619 -11.6827,10.4687 v 163.3125 c 6.5241,0.3068 11.6827,4.8517 11.6827,10.4688 v 14.25 c 0,5.6169 -5.1588,10.1618 -11.6827,10.4687 v 60.31242 h 53.1708 v 10.625 h 17.7116 v -10.625 h 35.42317 v 10.625 h 17.7117 v -10.625 h 70.8151 v 10.625 h 17.7116 v -10.625 h 35.4233 v 10.625 h 17.71172 v -10.625 h 53.1349 V 505.2898 c 6.5238,-0.3069 11.6827,-4.8518 11.6827,-10.4687 v -14.25 c 0,-5.6171 -5.1587,-10.162 -11.6827,-10.4688 V 306.7898 c 6.5239,-0.3068 11.6827,-4.8517 11.6827,-10.4687 v -14.25007 c 0,-5.6169 -5.1589,-10.1617 -11.6827,-10.4687 v -60.3125 h -53.1349 v -10.625 h -17.71172 v 10.625 h -35.4233 v -10.625 h -17.7116 v 10.625 h -70.8151 v -10.625 h -17.7117 v 10.625 h -35.42317 v -10.625 z"
       style="fill:none;stroke:#00ff00;stroke-width:0.99979883;stroke-linecap:round" />
    <path
       style="fill:none;stroke:#00ff00;stroke-width:0.99979883;stroke-linecap:round"
       d="m 181.27852,-129.8974 c -5.6151,-1e-5 -10.15814,5.16078 -10.46484,11.6875 H 138.01289 L -3.6472593,58.946353 l 38.7031203,38.71875 8.70118,-8.73633 12.52734,12.531247 -8.70313,8.73633 25.05274,25.03125 8.70312,-8.70313 12.52539,12.53125 -8.70312,8.70313 52.853509,52.875 h 32.80079 c 0.3253,-6.50553 4.86254,-11.62499 10.46484,-11.625 h 14.24414 c 5.6102,-1e-5 10.15029,5.13635 10.46289,11.65625 h 20.58594 v -12.375 h 17.71289 v 12.375 h 73.33398 v -12.375 h 17.67969 v 12.375 h 52.42773 c 0.0195,-0.40751 0.0556,-0.8093 0.10743,-1.20508 0.0518,-0.39578 0.11865,-0.78575 0.20117,-1.16797 0.0825,-0.38222 0.18127,-0.75622 0.29297,-1.12305 0.1117,-0.36682 0.23761,-0.72656 0.37695,-1.07617 0.13934,-0.3496 0.2916,-0.68898 0.45703,-1.01953 0.16544,-0.33054 0.34322,-0.65128 0.53321,-0.96094 0.18997,-0.30965 0.39247,-0.60955 0.60546,-0.89648 0.003,-0.004 0.005,-0.008 0.008,-0.0117 0.21051,-0.28276 0.43266,-0.55365 0.66406,-0.8125 0.003,-0.003 0.005,-0.007 0.008,-0.01 0.21427,-0.23917 0.43901,-0.46441 0.66992,-0.68165 0.019,-0.0179 0.0356,-0.0389 0.0547,-0.0566 0.16329,-0.15143 0.33684,-0.28778 0.50781,-0.42773 0.0968,-0.0792 0.188,-0.16677 0.28711,-0.24219 0.0716,-0.0545 0.14984,-0.0979 0.22266,-0.15039 0.20547,-0.14805 0.41041,-0.29631 0.625,-0.42773 0.28759,-0.17613 0.58211,-0.3377 0.88476,-0.48243 0.002,-8.8e-4 0.004,-0.001 0.006,-0.002 0.30271,-0.14451 0.61344,-0.27345 0.92969,-0.38476 0.002,-6.9e-4 0.004,-10e-4 0.006,-0.002 0.31691,-0.11131 0.63977,-0.20507 0.96875,-0.28125 0.26174,-0.0606 0.53031,-0.10136 0.79883,-0.13867 0.41038,-0.057 0.82604,-0.0957 1.25,-0.0957 h 14.24414 c 5.6102,0 10.15214,5.13633 10.46484,11.65625 h 20.58399 v -12.375 h 17.71289 v 12.375 h 48.73056 17.7109 6.8926 v -12.375 h 17.6817 v 12.375 h 10.7871 17.7422 23.8964 c 0.02,-0.40751 0.056,-0.8093 0.1075,-1.20508 0.7769,-5.93672 5.0972,-10.45116 10.3574,-10.45117 h 14.2441 c 5.6103,2e-5 10.1523,5.13636 10.4649,11.65625 h 29.4882 57.5391 v -12.375 h 17.7109 v 12.375 h 35.3614 v -12.375 h 17.7441 v 12.375 h 23.8965 c 0.3125,-6.52017 4.852,-11.65624 10.4629,-11.65625 h 14.2461 c 5.6103,2e-5 10.1503,5.13636 10.4629,11.65625 h 29.4883 v -53.125 h -12.4004 v -17.71875 h 12.4004 V 94.383583 h -12.4004 v -17.71875 h 12.4004 V 5.7588532 h -12.4004 V -11.959897 l 12.3691,0.03125 v -35.4375 h -12.3691 v -17.71875 h 12.3691 V -118.2099 h -29.457 c -0.3068,-6.52651 -4.8483,-11.68752 -10.4629,-11.6875 h -14.2461 c -5.6148,-2e-5 -10.1562,5.16071 -10.4629,11.6875 h -152.2832 -29.457 c -0.019,-0.40857 -0.054,-0.81205 -0.1055,-1.20899 -0.6134,-4.76045 -3.5031,-8.60921 -7.332,-9.95898 v 0 c -0.3182,-0.11241 -0.6442,-0.2083 -0.9746,-0.28516 v 0 c -0.3304,-0.0768 -0.6667,-0.13442 -1.0078,-0.17383 v 0 c -0.3418,-0.0394 -0.6882,-0.0605 -1.0391,-0.0605 h -14.2441 c -0.7018,0 -1.3867,0.081 -2.0489,0.23437 -0.3306,0.0766 -0.656,0.17301 -0.9746,0.28516 -0.3197,0.11257 -0.6316,0.24216 -0.9375,0.38867 v 0 c -3.6633,1.75552 -6.2773,5.87824 -6.502,10.7793 h -181.7468 c -0.2247,-4.90106 -2.83877,-9.02378 -6.50195,-10.7793 h -0.002 c -0.30588,-0.14651 -0.61777,-0.2761 -0.9375,-0.38867 -0.31826,-0.11241 -0.64221,-0.2083 -0.97266,-0.28516 h -0.002 c -0.66211,-0.15337 -1.34704,-0.23438 -2.04883,-0.23437 h -14.24414 c -0.70183,0 -1.3867,0.081 -2.04883,0.23437 -0.332,0.0769 -0.65883,0.17247 -0.97852,0.28516 -3.82902,1.34978 -6.7186,5.19853 -7.33203,9.95898 -0.0511,0.39671 -0.0867,0.80057 -0.10547,1.20899 H 354.92696 205.98555 c -0.3068,-6.52644 -4.84829,-11.68751 -10.46289,-11.6875 z"
       id="path3013"
       inkscape:connector-curvature="0" />
    <path
       style="fill:none;stroke:#00ff00;stroke-width:0.99979883;stroke-linecap:round"
       d="m 1074.0315,-141.17279 c -5.6151,-1e-5 -10.1582,5.16078 -10.4649,11.6875 h -32.8008 l -141.66015,177.156241 38.70312,38.71875 8.70118,-8.73633 12.52731,12.53125 -8.7031,8.736327 25.0527,25.031262 8.7032,-8.70313 12.5253,12.53125 -8.7031,8.70313 52.85354,52.875 h 32.8008 c 0.3253,-6.50553 4.8626,-11.62499 10.4649,-11.625 h 14.2441 c 5.6102,-1e-5 10.1503,5.13635 10.4629,11.65625 h 20.5859 v -12.375 h 17.7129 v 12.375 h 73.334 v -12.375 h 17.6797 v 12.375 h 52.4277 c 0.019,-0.40751 0.056,-0.8093 0.1075,-1.20508 0.052,-0.39578 0.1186,-0.78575 0.2011,-1.16797 0.082,-0.38222 0.1813,-0.75622 0.293,-1.12305 0.1117,-0.36682 0.2376,-0.72656 0.3769,-1.07617 0.1394,-0.3496 0.2916,-0.68898 0.4571,-1.01953 0.1654,-0.33054 0.3432,-0.65128 0.5332,-0.96094 0.19,-0.30965 0.3925,-0.60955 0.6054,-0.89648 0,-0.004 0,-0.008 0.01,-0.0117 0.2106,-0.28276 0.4327,-0.55365 0.6641,-0.8125 0,-0.003 0,-0.007 0.01,-0.01 0.2143,-0.23917 0.439,-0.46441 0.6699,-0.68165 0.019,-0.0179 0.036,-0.0389 0.055,-0.0566 0.1633,-0.15143 0.3369,-0.28778 0.5078,-0.42773 0.097,-0.0792 0.188,-0.16677 0.2871,-0.24219 0.072,-0.0545 0.1499,-0.0979 0.2227,-0.15039 0.2055,-0.14805 0.4104,-0.29631 0.625,-0.42773 0.2876,-0.17613 0.5821,-0.3377 0.8848,-0.48243 0,-8.8e-4 0,-0.001 0.01,-0.002 0.3027,-0.14451 0.6134,-0.27345 0.9297,-0.38476 0,-6.9e-4 0,-0.001 0.01,-0.002 0.3169,-0.11131 0.6397,-0.20507 0.9687,-0.28125 0.2617,-0.0606 0.5303,-0.10136 0.7988,-0.13867 0.4104,-0.057 0.8261,-0.0957 1.25,-0.0957 h 14.2442 c 5.6102,0 10.1521,5.13633 10.4648,11.65625 h 20.584 v -12.375 h 17.7129 v 12.375 h 48.7306 17.7109 6.8926 v -12.375 h 17.6817 v 12.375 h 10.7871 17.7422 23.8964 c 0.02,-0.40751 0.056,-0.8093 0.1075,-1.20508 0.7769,-5.93672 5.0972,-10.45116 10.3574,-10.45117 h 14.2441 c 5.6103,2e-5 10.1523,5.13636 10.4649,11.65625 h 29.4882 57.5391 v -12.375 h 17.7109 v 12.375 h 35.3614 v -12.375 h 17.7441 v 12.375 h 23.8965 c 0.3125,-6.52017 4.852,-11.65624 10.4629,-11.65625 h 14.2461 c 5.6103,2e-5 10.1503,5.13636 10.4629,11.65625 h 29.4883 v -53.125 h -12.4004 v -17.71875 h 12.4004 V 83.108181 h -12.4004 v -17.71875 h 12.4004 V -5.5165489 h -12.4004 V -23.235299 l 12.3691,0.0312 v -35.43745 h -12.3691 v -17.71875 h 12.3691 v -53.124991 h -29.457 c -0.3068,-6.52651 -4.8483,-11.68752 -10.4629,-11.6875 h -14.2461 c -5.6148,-2e-5 -10.1562,5.16071 -10.4629,11.6875 h -152.2832 -29.457 c -0.019,-0.40857 -0.054,-0.81205 -0.1055,-1.20899 -0.6134,-4.76045 -3.5031,-8.60921 -7.332,-9.95898 v 0 c -0.3182,-0.11241 -0.6442,-0.2083 -0.9746,-0.28516 v 0 c -0.3304,-0.0768 -0.6667,-0.13442 -1.0078,-0.17383 v 0 c -0.3418,-0.0394 -0.6882,-0.0605 -1.0391,-0.0605 h -14.2441 c -0.7018,0 -1.3867,0.081 -2.0489,0.23437 -0.3306,0.0766 -0.656,0.17301 -0.9746,0.28516 -0.3197,0.11257 -0.6316,0.24216 -0.9375,0.38867 v 0 c -3.6633,1.75552 -6.2773,5.87824 -6.502,10.7793 h -181.7468 c -0.2247,-4.90106 -2.8388,-9.02378 -6.502,-10.7793 v 0 c -0.3059,-0.14651 -0.6178,-0.2761 -0.9375,-0.38867 -0.3183,-0.11241 -0.6422,-0.2083 -0.9727,-0.28516 v 0 c -0.6621,-0.15337 -1.347,-0.23438 -2.0488,-0.23437 h -14.2441 c -0.7019,0 -1.3867,0.081 -2.0489,0.23437 -0.332,0.0769 -0.6588,0.17247 -0.9785,0.28516 -3.829,1.34978 -6.7186,5.19853 -7.332,9.95898 -0.051,0.39671 -0.087,0.80057 -0.1055,1.20899 h -32.7987 -148.9414 c -0.3068,-6.52644 -4.8483,-11.68751 -10.4629,-11.6875 z"
       id="path3013-9"
       inkscape:connector-curvature="0" />
  </g>
</svg>
