<?xml version="1.0" encoding="UTF-8" standalone="no"?>
<svg
   xmlns:dc="http://purl.org/dc/elements/1.1/"
   xmlns:cc="http://creativecommons.org/ns#"
   xmlns:rdf="http://www.w3.org/1999/02/22-rdf-syntax-ns#"
   xmlns:svg="http://www.w3.org/2000/svg"
   xmlns="http://www.w3.org/2000/svg"
   xmlns:sodipodi="http://sodipodi.sourceforge.net/DTD/sodipodi-0.dtd"
   xmlns:inkscape="http://www.inkscape.org/namespaces/inkscape"
   width="2834.6455"
   height="1629.9213"
   id="svg4456"
   version="1.1"
   inkscape:version="0.92.3 (2405546, 2018-03-11)"
   sodipodi:docname="linbin_screwless_borderless_stackable-SHORT.svg">
  <metadata
     id="metadata4553">
    <rdf:RDF>
      <cc:Work
         rdf:about="">
        <dc:format>image/svg+xml</dc:format>
        <dc:type
           rdf:resource="http://purl.org/dc/dcmitype/StillImage" />
        <dc:title />
      </cc:Work>
    </rdf:RDF>
  </metadata>
  <sodipodi:namedview
     pagecolor="#ffffff"
     bordercolor="#666666"
     borderopacity="1"
     objecttolerance="10"
     gridtolerance="10"
     guidetolerance="10"
     inkscape:pageopacity="0"
     inkscape:pageshadow="2"
     inkscape:window-width="1920"
     inkscape:window-height="1015"
     id="namedview4551"
     showgrid="false"
     inkscape:zoom="0.17810842"
     inkscape:cx="2017.9618"
     inkscape:cy="545.53262"
     inkscape:window-x="0"
     inkscape:window-y="0"
     inkscape:window-maximized="1"
     inkscape:current-layer="g4489"
     showguides="true"
     inkscape:guide-bbox="true"
     units="mm" />
  <desc
     id="desc4458">/home/simon/Dokumente/2d/linbinSingle.dxf - scale = 1.000000</desc>
  <defs
     id="defs4460">
    <marker
       refY="0"
       refX="0"
       style="overflow:visible"
       id="DistanceX"
       orient="auto">
      <path
         style="stroke:#000000;stroke-width:0.5"
         d="M 3,-3 -3,3 M 0,-5 0,5"
         id="path4463"
         inkscape:connector-curvature="0" />
    </marker>
    <pattern
       height="8"
       width="8"
       patternUnits="userSpaceOnUse"
       y="0"
       x="0"
       id="Hatch">
      <path
         linecap="square"
         stroke="#000000"
         stroke-width="0.25"
         d="M8 4 l-4,4"
         id="path4466" />
      <path
         linecap="square"
         stroke="#000000"
         stroke-width="0.25"
         d="M6 2 l-4,4"
         id="path4468" />
      <path
         linecap="square"
         stroke="#000000"
         stroke-width="0.25"
         d="M4 0 l-4,4"
         id="path4470" />
    </pattern>
    <symbol
       id="*Model_Space" />
    <symbol
       id="*Paper_Space" />
    <symbol
       id="*Paper_Space0" />
  </defs>
  <g
     inkscape:label="0"
     inkscape:groupmode="layer"
     id="g4475"
     transform="translate(0,577.55906)" />
  <g
     inkscape:label="first"
     inkscape:groupmode="layer"
     id="g4483"
     transform="translate(0,577.55906)" />
  <g
     inkscape:label="holes"
     inkscape:groupmode="layer"
     id="g4489"
     transform="translate(0,577.55906)">
    <path
       style="fill:none;stroke:#2b0000;stroke-width:0.99979883;stroke-linecap:round"
       d="m 2466.7008,-679.09124 v 10.63085 h -48.8593 v -10.49218 h -17.4102 v 10.49218 h -3.416 -13.7988 -63.3379 v 354.33007 h 0.9668 79.4472 v 10.6563 h 17.6875 v -10.6563 h 48.7207 v 10.6289 h 17.709 v -10.6289 h 35.4199 v 10.6289 h 17.709 v -10.6289 h 76.17 v -354.33007 h -76.17 v -10.63085 h -17.4101 -0.2989 v 10.63085 h -35.4199 v -10.63085 z"
       id="path3007"
       inkscape:connector-curvature="0" />
    <path
       sodipodi:nodetypes="ccccccccccccccccccccc"
       inkscape:connector-curvature="0"
       id="path3009"
       d="m 2588.4175,-90.74728 -74.2024,-2e-5 v -10.63004 l -17.7093,3e-5 v 10.63003 l -35.4189,-3e-5 v -10.62997 l -17.7093,8e-5 v 10.62992 l -54.3435,-5e-5 v 354.33077 l 54.3435,-3e-5 v 10.62991 l 17.7093,-2e-5 v -10.62984 l 35.4189,-5e-5 v 10.63005 l 17.7093,-1.5e-4 1e-4,-10.62975 74.2024,-10e-5 z"
       style="fill:none;stroke:#2b0000;stroke-width:0.99979883;stroke-linecap:round" />
    <path
       sodipodi:nodetypes="ccccssccssccccccccccccccccccccssccssccccccccccccccccc"
       inkscape:connector-curvature="0"
       id="path3011"
       d="m 1726.8532,-274.88982 h 10.625 v 53.1708 h 60.3125 c 0.307,-6.5239 4.8518,-11.6827 10.4687,-11.6827 h 14.2501 c 5.617,0 10.1619,5.1586 10.4687,11.6827 h 163.3125 c 0.3068,-6.5241 4.8517,-11.6827 10.4688,-11.6827 h 14.25 c 5.6169,0 10.1618,5.1588 10.4687,11.6827 h 60.3124 v -53.1708 h 10.625 v -17.7116 h -10.625 v -35.4232 h 10.625 v -17.7117 h -10.625 v -70.8151 h 10.625 v -17.7116 h -10.625 v -35.4233 h 10.625 v -17.7117 h -10.625 v -53.1349 h -60.3124 c -0.3069,-6.5238 -4.8518,-11.6827 -10.4687,-11.6827 h -14.25 c -5.6171,0 -10.162,5.1587 -10.4688,11.6827 h -163.3125 c -0.3068,-6.5239 -4.8517,-11.6827 -10.4687,-11.6827 h -14.2501 c -5.6169,0 -10.1617,5.1589 -10.4687,11.6827 h -60.3125 v 53.1349 h -10.625 v 17.7117 h 10.625 v 35.4233 h -10.625 v 17.7116 h 10.625 v 70.8151 h -10.625 v 17.7117 h 10.625 v 35.4232 h -10.625 z"
       style="fill:none;stroke:#2b0000;stroke-width:0.99979883;stroke-linecap:round" />
    <path
       style="fill:none;stroke:#2b0000;stroke-width:0.99979883;stroke-linecap:round"
       d="m 2043.1859,-123.69374 c -0.3451,-10e-6 -0.6853,0.0205 -1.0215,0.0586 -0.3417,0.0394 -0.6787,0.0991 -1.0098,0.17578 -0.3306,0.0766 -0.656,0.17301 -0.9746,0.28516 -0.3197,0.11257 -0.6316,0.24216 -0.9375,0.38867 -0.1672,0.0802 -0.3294,0.16989 -0.4922,0.25976 -0.074,0.0408 -0.1496,0.0784 -0.2226,0.1211 -0.1763,0.10338 -0.3472,0.21553 -0.5176,0.33008 -0.057,0.0381 -0.1138,0.0759 -0.1699,0.11523 -0.1823,0.12792 -0.3623,0.26004 -0.5371,0.40039 -0.4029,0.32342 -0.7869,0.67947 -1.1465,1.06445 -0.1669,0.17872 -0.3276,0.36369 -0.4844,0.55469 -0.024,0.029 -0.047,0.0586 -0.07,0.0879 -1.6599,2.06234 -2.7219,4.80385 -2.8613,7.84571 h -0.02 -32.8007 L 1858.2601,65.15 l 38.7031,38.71876 8.7012,-8.73633 12.5273,12.53125 -8.7031,8.73632 25.0527,25.03126 8.7032,-8.70313 12.5254,12.53125 -8.7032,8.70312 52.8536,52.875 h 32.8007 c 0.1346,-2.69137 0.9981,-5.13727 2.3516,-7.08984 0.1858,-0.26806 0.3819,-0.52498 0.5859,-0.77344 0.013,-0.0158 0.024,-0.0331 0.037,-0.0488 0.1899,-0.22874 0.3874,-0.44744 0.5918,-0.65821 0.036,-0.0375 0.073,-0.0744 0.1094,-0.11133 0.1905,-0.19104 0.3859,-0.37407 0.5879,-0.54882 0.054,-0.047 0.109,-0.0928 0.1641,-0.13868 0.1958,-0.16263 0.3961,-0.31804 0.6015,-0.46484 0.059,-0.0424 0.1197,-0.082 0.1797,-0.12305 0.2103,-0.14358 0.4233,-0.28176 0.6426,-0.4082 0.056,-0.0324 0.1133,-0.0626 0.1699,-0.0937 0.2205,-0.12134 0.4432,-0.23642 0.6719,-0.33984 0.091,-0.0415 0.1848,-0.0767 0.2773,-0.11524 0.1987,-0.0824 0.3975,-0.16396 0.6016,-0.23242 0.1212,-0.0409 0.2461,-0.0716 0.3691,-0.10742 0.1899,-0.055 0.3785,-0.11163 0.5723,-0.1543 0.1544,-0.0342 0.3121,-0.0558 0.4688,-0.082 0.162,-0.0268 0.3219,-0.06 0.4863,-0.0781 0.2823,-0.0315 0.5688,-0.044 0.8574,-0.0488 0.047,-7.1e-4 0.092,-0.008 0.1387,-0.008 h 14.2441 0.012 c 0.3466,4.5e-4 0.6897,0.0198 1.0274,0.0586 5.1284,0.58217 9.1442,5.48068 9.4375,11.59766 h 20.5722 v -12.375 h 17.7129 v 12.375 h 48.7422 v -12.375 h 17.711 v 12.375 h 6.8808 17.6797 10.8008 v -12.375 h 17.7441 v 12.375 h 23.8828 c 0.019,-0.40752 0.056,-0.8093 0.1075,-1.20508 0.052,-0.39578 0.1186,-0.78575 0.2011,-1.16797 0.082,-0.38222 0.1813,-0.75622 0.293,-1.12305 0.1117,-0.36682 0.2377,-0.72656 0.377,-1.07617 0.1393,-0.3496 0.2916,-0.68898 0.457,-1.01953 0.1655,-0.33054 0.3432,-0.65128 0.5332,-0.96094 0.19,-0.30965 0.3925,-0.60955 0.6055,-0.89648 0,-0.004 -6e-4,-0.008 0.01,-0.0117 0.2105,-0.28276 0.4326,-0.55365 0.6641,-0.8125 0,-0.003 -4e-4,-0.007 0.01,-0.01 0.2143,-0.23917 0.439,-0.4644 0.6699,-0.68164 0.019,-0.0179 0.036,-0.0389 0.055,-0.0566 0.1633,-0.15143 0.3368,-0.28778 0.5078,-0.42773 0.097,-0.0792 0.188,-0.16677 0.2871,-0.24219 0.072,-0.0545 0.1497,-0.0979 0.2226,-0.15039 0.2054,-0.14805 0.4104,-0.29632 0.625,-0.42774 0.2875,-0.17613 0.5822,-0.33769 0.8848,-0.48242 0,-8.8e-4 -3e-4,-9e-4 0.012,-0.002 0.2347,-0.11205 0.4775,-0.20646 0.7207,-0.29883 0.07,-0.0268 0.138,-0.0609 0.209,-0.0859 v -0.002 c 0.5707,-0.20082 1.1655,-0.33543 1.7735,-0.41992 0.4103,-0.057 0.824,-0.0957 1.248,-0.0957 h 14.2461 c 0.3506,0 0.6956,0.0194 1.0371,0.0586 0.3408,0.0392 0.6775,0.0974 1.0078,0.17383 0.3302,0.0765 0.6546,0.17127 0.9727,0.2832 0.3181,0.112 0.6293,0.24308 0.9336,0.38867 3.0483,1.45882 5.37,4.55744 6.1953,8.37891 0.1651,0.76442 0.2714,1.55806 0.3105,2.37305 h 20.584 v -12.375 h 8.9024 v -40.75 h -12.4004 V 136.025 h 12.4004 v -35.4375 h -12.4004 V 82.86876 h 12.4004 V 11.9625 h -12.4004 V -5.75624 l 12.3691,0.03124 v -35.4375 h -12.3691 v -17.71874 h 12.3691 v -53.125 h -29.457 c -0.018,-0.37821 -0.052,-0.75085 -0.098,-1.11915 -0.01,-0.0793 -0.022,-0.15753 -0.033,-0.23632 -0.042,-0.2998 -0.092,-0.59665 -0.1523,-0.88868 -0.014,-0.0691 -0.028,-0.13838 -0.043,-0.20703 -0.1607,-0.72889 -0.3744,-1.43192 -0.6387,-2.10156 -0.01,-0.0231 -0.02,-0.0453 -0.029,-0.0684 -0.1289,-0.32159 -0.2688,-0.6359 -0.4199,-0.9414 -0.01,-0.0213 -0.021,-0.0432 -0.031,-0.0645 -0.3228,-0.64372 -0.6926,-1.24925 -1.1055,-1.81054 -0.017,-0.0225 -0.034,-0.044 -0.051,-0.0664 -0.1911,-0.25605 -0.3913,-0.50182 -0.5996,-0.73828 -0.023,-0.0259 -0.043,-0.0524 -0.066,-0.0781 -0.4449,-0.49592 -0.9298,-0.94552 -1.4434,-1.34375 -0.05,-0.0388 -0.1,-0.0755 -0.1504,-0.11328 -0.2141,-0.15981 -0.4319,-0.3116 -0.6562,-0.45312 -0.048,-0.0303 -0.096,-0.0605 -0.1445,-0.0898 -0.2729,-0.16577 -0.5514,-0.32146 -0.8379,-0.45898 -0.305,-0.14646 -0.6168,-0.27605 -0.9356,-0.38867 -0.1591,-0.0562 -0.3242,-0.0949 -0.4863,-0.14258 -0.162,-0.0473 -0.3214,-0.10422 -0.4863,-0.14258 -0.6615,-0.15372 -1.3457,-0.23423 -2.0469,-0.23437 h -14.2461 c -1.0528,-10e-6 -2.067,0.18168 -3.0234,0.51953 -0.2908,0.10269 -0.5742,0.22261 -0.8536,0.35351 -0.069,0.0323 -0.1368,0.0676 -0.205,0.10156 -0.2276,0.11335 -0.4511,0.23583 -0.67,0.36719 -0.053,0.0315 -0.1061,0.0612 -0.1582,0.0937 -0.5357,0.3352 -1.0445,0.72235 -1.5195,1.1582 -0.049,0.0451 -0.096,0.0926 -0.1445,0.13868 -0.2031,0.19328 -0.3998,0.39508 -0.5899,0.60547 -0.029,0.0325 -0.061,0.0648 -0.09,0.0977 -0.4459,0.50511 -0.856,1.05514 -1.2207,1.64649 -0.022,0.0364 -0.04,0.0746 -0.062,0.11132 -0.1584,0.26283 -0.3083,0.53293 -0.4492,0.81055 -0.022,0.0432 -0.045,0.0854 -0.066,0.12891 -0.3133,0.63449 -0.5798,1.30547 -0.795,2.00586 -0.013,0.0426 -0.024,0.0861 -0.037,0.1289 -0.087,0.29509 -0.1635,0.59547 -0.2324,0.90039 -0.018,0.0808 -0.038,0.16072 -0.055,0.24219 -0.073,0.35074 -0.1365,0.70647 -0.1836,1.06836 0,0.0327 3e-4,0.0669 -0.01,0.0996 -0.044,0.36511 -0.083,0.73458 -0.1,1.10938 h -32.7969 -119.4863 -29.4551 c -0.019,-0.40857 -0.054,-0.81205 -0.1055,-1.20899 -0.01,-0.0427 -0.014,-0.0844 -0.019,-0.12695 -0.044,-0.31524 -0.099,-0.62694 -0.1621,-0.9336 -0.019,-0.0939 -0.042,-0.18626 -0.062,-0.27929 -0.063,-0.27419 -0.1313,-0.54431 -0.209,-0.81055 -0.022,-0.0742 -0.041,-0.14912 -0.064,-0.22266 -0.2133,-0.68813 -0.4769,-1.3484 -0.7851,-1.97265 -0.022,-0.0435 -0.044,-0.0857 -0.066,-0.12891 -0.141,-0.27762 -0.2909,-0.54772 -0.4493,-0.81055 -0.022,-0.037 -0.042,-0.0747 -0.064,-0.11132 -0.3644,-0.59098 -0.7711,-1.14165 -1.2168,-1.64649 -0.028,-0.0322 -0.057,-0.0639 -0.086,-0.0957 -0.1938,-0.21464 -0.3963,-0.42035 -0.6036,-0.61719 -0.044,-0.0415 -0.087,-0.0843 -0.1308,-0.125 -0.4765,-0.43773 -0.9858,-0.82576 -1.5235,-1.16211 -0.052,-0.0322 -0.104,-0.0625 -0.1562,-0.0937 -0.2188,-0.13137 -0.4424,-0.25383 -0.6699,-0.36719 -0.068,-0.0339 -0.1361,-0.0693 -0.2051,-0.10156 -0.2647,-0.12407 -0.5336,-0.23717 -0.8086,-0.33594 -0.015,-0.005 -0.03,-0.0122 -0.045,-0.0176 -0.3176,-0.11221 -0.6429,-0.20837 -0.9727,-0.28516 -0.3304,-0.0768 -0.6667,-0.13442 -1.0078,-0.17383 -0.3238,-0.0373 -0.6525,-0.0545 -0.9844,-0.0566 -0.018,-1.1e-4 -0.038,-0.004 -0.057,-0.004 z"
       id="path3013"
       inkscape:connector-curvature="0" />
    <path
       style="fill:none;stroke:#2b0000;stroke-width:0.99979883;stroke-linecap:round"
       d="m 2051.2224,269.47966 c -0.3451,-1e-5 -0.6853,0.0205 -1.0215,0.0586 -0.3417,0.0394 -0.6787,0.0991 -1.0098,0.17578 -0.3306,0.0766 -0.656,0.17301 -0.9746,0.28516 -0.3197,0.11257 -0.6316,0.24216 -0.9375,0.38867 -0.1672,0.0802 -0.3294,0.16989 -0.4922,0.25976 -0.074,0.0408 -0.1496,0.0784 -0.2226,0.1211 -0.1763,0.10338 -0.3472,0.21553 -0.5176,0.33008 -0.057,0.0381 -0.1138,0.0759 -0.1699,0.11523 -0.1823,0.12792 -0.3623,0.26004 -0.5371,0.40039 -0.4029,0.32342 -0.7869,0.67947 -1.1465,1.06445 -0.1669,0.17872 -0.3276,0.36369 -0.4844,0.55469 -0.024,0.029 -0.047,0.0586 -0.07,0.0879 -1.6599,2.06234 -2.7219,4.80385 -2.8613,7.84571 h -0.02 -32.8007 l -141.6601,177.15622 38.7031,38.71876 8.7012,-8.73633 12.5273,12.53125 -8.7031,8.73632 25.0527,25.03126 8.7032,-8.70313 12.5254,12.53125 -8.7032,8.70312 52.8536,52.875 h 32.8007 c 0.1346,-2.69137 0.9981,-5.13727 2.3516,-7.08984 0.1858,-0.26806 0.3819,-0.52498 0.5859,-0.77344 0.013,-0.0158 0.024,-0.0331 0.037,-0.0488 0.1899,-0.22874 0.3874,-0.44744 0.5918,-0.65821 0.036,-0.0375 0.073,-0.0744 0.1094,-0.11133 0.1905,-0.19104 0.3859,-0.37407 0.5879,-0.54882 0.054,-0.047 0.109,-0.0928 0.1641,-0.13868 0.1958,-0.16263 0.3961,-0.31804 0.6015,-0.46484 0.059,-0.0424 0.1197,-0.082 0.1797,-0.12305 0.2103,-0.14358 0.4233,-0.28176 0.6426,-0.4082 0.056,-0.0324 0.1133,-0.0626 0.1699,-0.0937 0.2205,-0.12134 0.4432,-0.23642 0.6719,-0.33984 0.091,-0.0415 0.1848,-0.0767 0.2773,-0.11524 0.1987,-0.0824 0.3975,-0.16396 0.6016,-0.23242 0.1212,-0.0409 0.2461,-0.0716 0.3691,-0.10742 0.1899,-0.055 0.3785,-0.11163 0.5723,-0.1543 0.1544,-0.0342 0.3121,-0.0558 0.4688,-0.082 0.162,-0.0268 0.3219,-0.06 0.4863,-0.0781 0.2823,-0.0315 0.5688,-0.044 0.8574,-0.0488 0.047,-7.1e-4 0.092,-0.008 0.1387,-0.008 h 14.2441 0.012 c 0.3466,4.5e-4 0.6897,0.0198 1.0274,0.0586 5.1284,0.58217 9.1442,5.48068 9.4375,11.59766 h 20.5722 v -12.375 h 17.7129 v 12.375 h 48.7422 v -12.375 h 17.711 v 12.375 h 6.8808 17.6797 10.8008 v -12.375 h 17.7441 v 12.375 h 23.8828 c 0.019,-0.40752 0.056,-0.8093 0.1075,-1.20508 0.052,-0.39578 0.1186,-0.78575 0.2011,-1.16797 0.082,-0.38222 0.1813,-0.75622 0.293,-1.12305 0.1117,-0.36682 0.2377,-0.72656 0.377,-1.07617 0.1393,-0.3496 0.2916,-0.68898 0.457,-1.01953 0.1655,-0.33054 0.3432,-0.65128 0.5332,-0.96094 0.19,-0.30965 0.3925,-0.60955 0.6055,-0.89648 0,-0.004 -6e-4,-0.008 0.01,-0.0117 0.2105,-0.28276 0.4326,-0.55365 0.6641,-0.8125 0,-0.003 -4e-4,-0.007 0.01,-0.01 0.2143,-0.23917 0.439,-0.4644 0.6699,-0.68164 0.019,-0.0179 0.036,-0.0389 0.055,-0.0566 0.1633,-0.15143 0.3368,-0.28778 0.5078,-0.42773 0.097,-0.0792 0.188,-0.16677 0.2871,-0.24219 0.072,-0.0545 0.1497,-0.0979 0.2226,-0.15039 0.2054,-0.14805 0.4104,-0.29632 0.625,-0.42774 0.2875,-0.17613 0.5822,-0.33769 0.8848,-0.48242 0,-8.8e-4 -3e-4,-9e-4 0.012,-0.002 0.2347,-0.11205 0.4775,-0.20646 0.7207,-0.29883 0.07,-0.0268 0.138,-0.0609 0.209,-0.0859 v -0.002 c 0.5707,-0.20082 1.1655,-0.33543 1.7735,-0.41992 0.4103,-0.057 0.824,-0.0957 1.248,-0.0957 h 14.2461 c 0.3506,0 0.6956,0.0194 1.0371,0.0586 0.3408,0.0392 0.6775,0.0974 1.0078,0.17383 0.3302,0.0765 0.6546,0.17127 0.9727,0.2832 0.3181,0.112 0.6293,0.24308 0.9336,0.38867 3.0483,1.45882 5.37,4.55744 6.1953,8.37891 0.1651,0.76442 0.2714,1.55806 0.3105,2.37305 h 20.584 v -12.375 h 8.9024 v -40.75 h -12.4004 V 529.1984 h 12.4004 v -35.4375 h -12.4004 v -17.71874 h 12.4004 V 405.1359 h -12.4004 v -17.71874 l 12.3691,0.0312 V 352.0109 h -12.3691 v -17.71874 h 12.3691 v -53.125 h -29.457 c -0.018,-0.37821 -0.052,-0.75085 -0.098,-1.11915 -0.01,-0.0793 -0.022,-0.15753 -0.033,-0.23632 -0.042,-0.2998 -0.092,-0.59665 -0.1523,-0.88868 -0.014,-0.0691 -0.028,-0.13838 -0.043,-0.20703 -0.1607,-0.72889 -0.3744,-1.43192 -0.6387,-2.10156 -0.01,-0.0231 -0.02,-0.0453 -0.029,-0.0684 -0.1289,-0.32159 -0.2688,-0.6359 -0.4199,-0.9414 -0.01,-0.0213 -0.021,-0.0432 -0.031,-0.0645 -0.3228,-0.64372 -0.6926,-1.24925 -1.1055,-1.81054 -0.017,-0.0225 -0.034,-0.044 -0.051,-0.0664 -0.1911,-0.25605 -0.3913,-0.50182 -0.5996,-0.73828 -0.023,-0.0259 -0.043,-0.0524 -0.066,-0.0781 -0.4449,-0.49592 -0.9298,-0.94552 -1.4434,-1.34375 -0.05,-0.0388 -0.1,-0.0755 -0.1504,-0.11328 -0.2141,-0.15981 -0.4319,-0.3116 -0.6562,-0.45312 -0.048,-0.0303 -0.096,-0.0605 -0.1445,-0.0898 -0.2729,-0.16577 -0.5514,-0.32146 -0.8379,-0.45898 -0.305,-0.14646 -0.6168,-0.27605 -0.9356,-0.38867 -0.1591,-0.0562 -0.3242,-0.0949 -0.4863,-0.14258 -0.162,-0.0473 -0.3214,-0.10422 -0.4863,-0.14258 -0.6615,-0.15372 -1.3457,-0.23423 -2.0469,-0.23437 h -14.2461 c -1.0528,-10e-6 -2.067,0.18168 -3.0234,0.51953 -0.2908,0.10269 -0.5742,0.22261 -0.8536,0.35351 -0.069,0.0323 -0.1368,0.0676 -0.205,0.10156 -0.2276,0.11335 -0.4511,0.23583 -0.67,0.36719 -0.053,0.0315 -0.1061,0.0612 -0.1582,0.0937 -0.5357,0.3352 -1.0445,0.72235 -1.5195,1.1582 -0.049,0.0451 -0.096,0.0926 -0.1445,0.13868 -0.2031,0.19328 -0.3998,0.39508 -0.5899,0.60547 -0.029,0.0325 -0.061,0.0648 -0.09,0.0977 -0.4459,0.50511 -0.856,1.05514 -1.2207,1.64649 -0.022,0.0364 -0.04,0.0746 -0.062,0.11132 -0.1584,0.26283 -0.3083,0.53293 -0.4492,0.81055 -0.022,0.0432 -0.045,0.0854 -0.066,0.12891 -0.3133,0.63449 -0.5798,1.30547 -0.795,2.00586 -0.013,0.0426 -0.024,0.0861 -0.037,0.1289 -0.087,0.29509 -0.1635,0.59547 -0.2324,0.90039 -0.018,0.0808 -0.038,0.16072 -0.055,0.24219 -0.073,0.35074 -0.1365,0.70647 -0.1836,1.06836 0,0.0327 3e-4,0.0669 -0.01,0.0996 -0.044,0.36511 -0.083,0.73458 -0.1,1.10938 h -32.7969 -119.4863 -29.4551 c -0.019,-0.40857 -0.054,-0.81205 -0.1055,-1.20899 -0.01,-0.0427 -0.014,-0.0844 -0.019,-0.12695 -0.044,-0.31524 -0.099,-0.62694 -0.1621,-0.9336 -0.019,-0.0939 -0.042,-0.18626 -0.062,-0.27929 -0.063,-0.27419 -0.1313,-0.54431 -0.209,-0.81055 -0.022,-0.0742 -0.041,-0.14912 -0.064,-0.22266 -0.2133,-0.68813 -0.4769,-1.3484 -0.7851,-1.97265 -0.022,-0.0435 -0.044,-0.0857 -0.066,-0.12891 -0.141,-0.27762 -0.2909,-0.54772 -0.4493,-0.81055 -0.022,-0.037 -0.042,-0.0747 -0.064,-0.11132 -0.3644,-0.59098 -0.7711,-1.14165 -1.2168,-1.64649 -0.028,-0.0322 -0.057,-0.0639 -0.086,-0.0957 -0.1938,-0.21464 -0.3963,-0.42035 -0.6036,-0.61719 -0.044,-0.0415 -0.087,-0.0843 -0.1308,-0.125 -0.4765,-0.43773 -0.9858,-0.82576 -1.5235,-1.16211 -0.052,-0.0322 -0.104,-0.0625 -0.1562,-0.0937 -0.2188,-0.13137 -0.4424,-0.25383 -0.6699,-0.36719 -0.068,-0.0339 -0.1361,-0.0693 -0.2051,-0.10156 -0.2647,-0.12407 -0.5336,-0.23717 -0.8086,-0.33594 -0.015,-0.005 -0.03,-0.0122 -0.045,-0.0176 -0.3176,-0.11221 -0.6429,-0.20837 -0.9727,-0.28516 -0.3304,-0.0768 -0.6667,-0.13442 -1.0078,-0.17383 -0.3238,-0.0373 -0.6525,-0.0545 -0.9844,-0.0566 -0.018,-1.1e-4 -0.038,-0.004 -0.057,-0.004 z"
       id="path3013-7"
       inkscape:connector-curvature="0" />
  </g>
</svg>
