<?xml version="1.0" encoding="UTF-8" standalone="no"?>
<svg
   xmlns:dc="http://purl.org/dc/elements/1.1/"
   xmlns:cc="http://creativecommons.org/ns#"
   xmlns:rdf="http://www.w3.org/1999/02/22-rdf-syntax-ns#"
   xmlns:svg="http://www.w3.org/2000/svg"
   xmlns="http://www.w3.org/2000/svg"
   xmlns:sodipodi="http://sodipodi.sourceforge.net/DTD/sodipodi-0.dtd"
   xmlns:inkscape="http://www.inkscape.org/namespaces/inkscape"
   width="2834.6455"
   height="1629.9213"
   id="svg4456"
   version="1.1"
   inkscape:version="0.48.2 r9819"
   sodipodi:docname="linbin_screwless_borderless_stackable.svg">
  <metadata
     id="metadata4553">
    <rdf:RDF>
      <cc:Work
         rdf:about="">
        <dc:format>image/svg+xml</dc:format>
        <dc:type
           rdf:resource="http://purl.org/dc/dcmitype/StillImage" />
        <dc:title></dc:title>
      </cc:Work>
    </rdf:RDF>
  </metadata>
  <sodipodi:namedview
     pagecolor="#ffffff"
     bordercolor="#666666"
     borderopacity="1"
     objecttolerance="10"
     gridtolerance="10"
     guidetolerance="10"
     inkscape:pageopacity="0"
     inkscape:pageshadow="2"
     inkscape:window-width="1920"
     inkscape:window-height="1056"
     id="namedview4551"
     showgrid="false"
     inkscape:zoom="0.5037667"
     inkscape:cx="1476.8571"
     inkscape:cy="931.63012"
     inkscape:window-x="0"
     inkscape:window-y="24"
     inkscape:window-maximized="1"
     inkscape:current-layer="g4489"
     showguides="true"
     inkscape:guide-bbox="true"
     units="mm" />
  <desc
     id="desc4458">/home/simon/Dokumente/2d/linbinSingle.dxf - scale = 1.000000</desc>
  <defs
     id="defs4460">
    <marker
       refY="0"
       refX="0"
       style="overflow:visible"
       id="DistanceX"
       orient="auto">
      <path
         style="stroke:#000000;stroke-width:0.5"
         d="M 3,-3 -3,3 M 0,-5 0,5"
         id="path4463"
         inkscape:connector-curvature="0" />
    </marker>
    <pattern
       height="8"
       width="8"
       patternUnits="userSpaceOnUse"
       y="0"
       x="0"
       id="Hatch">
      <path
         linecap="square"
         stroke="#000000"
         stroke-width="0.25"
         d="M8 4 l-4,4"
         id="path4466" />
      <path
         linecap="square"
         stroke="#000000"
         stroke-width="0.25"
         d="M6 2 l-4,4"
         id="path4468" />
      <path
         linecap="square"
         stroke="#000000"
         stroke-width="0.25"
         d="M4 0 l-4,4"
         id="path4470" />
    </pattern>
    <symbol
       id="*Model_Space" />
    <symbol
       id="*Paper_Space" />
    <symbol
       id="*Paper_Space0" />
  </defs>
  <g
     inkscape:label="0"
     inkscape:groupmode="layer"
     id="g4475"
     transform="translate(0,577.55906)" />
  <g
     inkscape:label="first"
     inkscape:groupmode="layer"
     id="g4483"
     transform="translate(0,577.55906)" />
  <g
     inkscape:label="holes"
     inkscape:groupmode="layer"
     id="g4489"
     transform="translate(0,577.55906)">
    <path
       sodipodi:nodetypes="ccccccccccccccccccccccccccccccccccccc"
       inkscape:connector-curvature="0"
       id="path3007"
       d="m 575.63353,-207.40276 174.7963,1e-4 10e-5,10.6298 17.7093,0 0,-10.6298 35.4189,-1e-4 0,10.63 17.7094,-1e-4 0,-10.6299 76.1707,0 -10e-5,-354.33058 -77.8145,0 1.6439,-10.6301 -17.7094,0 -10e-5,10.6301 -35.4188,-10e-5 0,-10.6299 -17.7094,0 10e-5,10.6299 -174.7965,0 0,-10.6299 -17.7094,-10e-5 0,10.6301 -73.1354,-10e-5 0,-10.6299 -17.7095,0 0,10.6299 -82.05944,0 0,354.33079 82.05944,0 10e-5,10.6298 17.7093,1e-4 1e-4,-10.6299 73.1354,-1e-4 0,10.6299 17.7094,0 10e-5,-10.6299"
       style="fill:none;stroke:#00ff00;stroke-width:0.99979883;stroke-linecap:round" />
    <path
       sodipodi:nodetypes="ccccccccccccccccccccc"
       inkscape:connector-curvature="0"
       id="path3009"
       d="m 1442.3506,-561.73344 -74.2024,-2e-5 0,-10.63004 -17.7093,3e-5 0,10.63003 -35.4189,-3e-5 0,-10.62997 -17.7093,8e-5 0,10.62992 -54.3435,-5e-5 0,354.33077 54.3435,-3e-5 0,10.62991 17.7093,-2e-5 0,-10.62984 35.4189,-5e-5 0,10.63005 17.7093,-1.5e-4 10e-5,-10.62975 74.2024,-1e-4 z"
       style="fill:none;stroke:#00ff00;stroke-width:0.99979883;stroke-linecap:round" />
    <path
       sodipodi:nodetypes="ccccssccssccccccccccccccccccccssccssccccccccccccccccc"
       inkscape:connector-curvature="0"
       id="path3011"
       d="m 959.12523,-572.3493 0,10.625 -53.1708,0 0,60.3125 c 6.5239,0.307 11.6827,4.8518 11.6827,10.4687 l 0,14.25007 c 0,5.617 -5.1586,10.1619 -11.6827,10.4687 l 0,163.3125 c 6.5241,0.3068 11.6827,4.8517 11.6827,10.4688 l 0,14.25 c 0,5.6169 -5.1588,10.1618 -11.6827,10.4687 l 0,60.31242 53.1708,0 0,10.625 17.7116,0 0,-10.625 35.42317,0 0,10.625 17.7117,0 0,-10.625 70.8151,0 0,10.625 17.7116,0 0,-10.625 35.4233,0 0,10.625 17.7117,0 0,-10.625 53.1349,0 0,-60.31242 c 6.5238,-0.3069 11.6827,-4.8518 11.6827,-10.4687 l 0,-14.25 c 0,-5.6171 -5.1587,-10.162 -11.6827,-10.4688 l 0,-163.3125 c 6.5239,-0.3068 11.6827,-4.8517 11.6827,-10.4687 l 0,-14.25007 c 0,-5.6169 -5.1589,-10.1617 -11.6827,-10.4687 l 0,-60.3125 -53.1349,0 0,-10.625 -17.7117,0 0,10.625 -35.4233,0 0,-10.625 -17.7116,0 0,10.625 -70.8151,0 0,-10.625 -17.7117,0 0,10.625 -35.42317,0 0,-10.625 z"
       style="fill:none;stroke:#00ff00;stroke-width:0.99979883;stroke-linecap:round" />
    <path
       inkscape:connector-curvature="0"
       id="path3013"
       d="m 1634.1409,-538.71946 c -5.6151,-10e-6 -10.1579,5.16077 -10.4646,11.68749 l -32.7993,0 -141.6617,177.15632 38.7031,38.71877 8.7019,-8.7359 12.5266,12.53085 -8.702,8.73595 25.0523,25.03123 8.7034,-8.7034 12.5259,12.53156 -8.7033,8.70335 52.8538,52.87504 32.7993,-1e-5 c 0.3253,-6.50553 4.8623,-11.62496 10.4646,-11.62497 l 14.2442,10e-6 c 5.6102,-10e-6 10.1519,5.13633 10.4645,11.65623 l 20.5854,2e-5 0,-12.37504 17.7117,2e-5 0,12.37497 73.3348,5e-5 0,-12.37504 17.6804,-2e-5 0,12.37504 52.427,1e-5 c 0.3125,-6.52018 4.8537,-11.6563 10.4646,-11.65624 l 14.2443,-3e-5 c 5.6102,0 10.1518,5.13631 10.4645,11.65623 l 87.0274,2e-5 0,-12.37503 17.7117,2e-5 0,12.37504 35.3608,-4e-5 0,-12.37497 17.7428,-3e-5 0,12.37503 23.8966,-3e-5 c 0.3125,-6.52017 4.8537,-11.65623 10.4646,-11.65624 l 14.2443,-3e-5 c 5.6103,2e-5 10.1518,5.13639 10.4644,11.65628 l 29.4882,0 0,-53.12504 -12.4013,3e-5 0,-17.71872 12.4013,-3e-5 0,-35.4375 -12.4013,3e-5 0,-17.71879 12.4013,4e-5 0,-70.90626 -12.4013,-4e-5 0,-17.71872 12.37,0.0312 0,-35.4375 -12.37,0 0,-17.71872 12.37,-10e-6 0,-53.12504 -29.4569,5e-5 c -0.3068,-6.52651 -4.8498,-11.68754 -10.4644,-11.68752 l -14.2443,2e-5 c -5.6148,-2e-5 -10.1579,5.1607 -10.4646,11.68749 l -181.7393,-10e-6 c -0.2996,-6.53475 -4.8449,-11.68752 -10.4645,-11.68748 l -14.2443,-4e-5 c -5.6199,-2e-5 -10.165,5.15274 -10.4646,11.68749 l -181.7393,-10e-6 c -0.3068,-6.52644 -4.8499,-11.68749 -10.4645,-11.68748 l -14.2442,-2e-5 z"
       style="fill:none;stroke:#00ff00;stroke-width:0.99979883;stroke-linecap:round"
       sodipodi:nodetypes="ccccccccccccccssccccccccccssccccccccccssccccccccccccccccccccssccssccscc" />
    <path
       sodipodi:nodetypes="ccccccccccccccssccccccccccssccccccccccssccccccccccccccccccccssccssccscc"
       style="fill:none;stroke:#00ff00;stroke-width:0.99979883;stroke-linecap:round"
       d="m 2312.907,-548.64469 c -5.6151,-10e-6 -10.1579,5.16077 -10.4646,11.68749 l -32.7993,0 -141.6617,177.15632 38.7031,38.71877 8.7019,-8.7359 12.5266,12.53085 -8.702,8.73595 25.0523,25.03123 8.7034,-8.7034 12.5259,12.53156 -8.7033,8.70335 52.8538,52.87504 32.7993,-1e-5 c 0.3253,-6.50553 4.8623,-11.62496 10.4646,-11.62497 l 14.2442,10e-6 c 5.6102,-10e-6 10.1519,5.13633 10.4645,11.65623 l 20.5854,2e-5 0,-12.37504 17.7117,2e-5 0,12.37497 73.3348,5e-5 0,-12.37504 17.6804,-2e-5 0,12.37504 52.427,1e-5 c 0.3125,-6.52018 4.8537,-11.6563 10.4646,-11.65624 l 14.2443,-3e-5 c 5.6102,0 10.1518,5.13631 10.4645,11.65623 l 87.0274,2e-5 0,-12.37503 17.7117,2e-5 0,12.37504 35.3608,-4e-5 0,-12.37497 17.7428,-3e-5 0,12.37503 23.8966,-3e-5 c 0.3125,-6.52017 4.8537,-11.65623 10.4646,-11.65624 l 14.2443,-3e-5 c 5.6103,2e-5 10.1518,5.13639 10.4644,11.65628 l 29.4882,0 0,-53.12504 -12.4013,3e-5 0,-17.71872 12.4013,-3e-5 0,-35.4375 -12.4013,3e-5 0,-17.71879 12.4013,4e-5 0,-70.90626 -12.4013,-4e-5 0,-17.71872 12.37,0.0312 0,-35.4375 -12.37,0 0,-17.71872 12.37,-10e-6 0,-53.12504 -29.4569,5e-5 c -0.3068,-6.52651 -4.8498,-11.68754 -10.4644,-11.68752 l -14.2443,2e-5 c -5.6148,-2e-5 -10.1579,5.1607 -10.4646,11.68749 l -181.7393,-10e-6 c -0.2996,-6.53475 -4.8449,-11.68752 -10.4645,-11.68748 l -14.2443,-4e-5 c -5.6199,-2e-5 -10.165,5.15274 -10.4646,11.68749 l -181.7393,-10e-6 c -0.3068,-6.52644 -4.8499,-11.68749 -10.4645,-11.68748 l -14.2442,-2e-5 z"
       id="path3360"
       inkscape:connector-curvature="0" />
  </g>
</svg>
